<?xml version="1.0" standalone="no"?><!DOCTYPE svg PUBLIC "-//W3C//DTD SVG 1.1//EN" "http://www.w3.org/Graphics/SVG/1.1/DTD/svg11.dtd"><svg t="1765097183923" class="icon" viewBox="0 0 1024 1024" version="1.1" xmlns="http://www.w3.org/2000/svg" p-id="41313" data-spm-anchor-id="a313x.search_index.0.i25.6a963a81QnvvgD" xmlns:xlink="http://www.w3.org/1999/xlink" width="256" height="256"><path d="M512 0c282.752 0 512 229.248 512 512s-229.248 512-512 512S0 794.752 0 512 229.248 0 512 0z m213.333333 401.664v-9.813333a33.493333 33.493333 0 0 0-9.514666-23.381334l-79.061334-81.066666a33.493333 33.493333 0 0 0-24.021333-10.069334l-247.168 0.298667A66.986667 66.986667 0 0 0 298.666667 344.618667v335.061333c0 36.992 29.994667 66.986667 66.986666 66.986667h292.693334A66.986667 66.986667 0 0 0 725.333333 679.68v-234.496h-97.109333a66.986667 66.986667 0 0 1-66.986667-66.986667V277.76h42.666667v90.453333c0 18.474667 14.976 33.493333 33.493333 33.493334H725.333333z m-306.432 113.877333h186.197334a21.76 21.76 0 0 1 0 43.52H418.901333a21.76 21.76 0 0 1 0-43.52z m0 97.152h186.197334a21.76 21.76 0 0 1 0 43.52H418.901333a21.76 21.76 0 0 1 0-43.52z" fill="#e98f36" p-id="41314" data-spm-anchor-id="a313x.search_index.0.i26.6a963a81QnvvgD" class="selected"></path></svg>