<svg xmlns="http://www.w3.org/2000/svg" id="mx_n_1782052576693" width="16" height="16" class="icon" data-spm-anchor-id="a313x.collections_detail.0.i15.259a3a81IvubSU" viewBox="0 0 1024 1024">
  <path fill="#2c2c2c" d="M512 556.89A273.6 273.6 0 0 0 705.46 89.83a273.6 273.6 0 1 0-386.92 386.92A271.8 271.8 0 0 0 512 556.89m0-467.19c106.75 0 193.6 86.85 193.6 193.6S618.75 476.89 512 476.89 318.4 390 318.4 283.29 405.25 89.69 512 89.69z" data-spm-anchor-id="a313x.collections_detail.0.i16.259a3a81IvubSU"/>
  <path fill="#ff8830" d="M647.1 749.45 470 926.52l-93.1-93.13A40 40 0 0 0 320.33 890l106.43 106.38a61.26 61.26 0 0 0 86.54 0L703.67 806a40 40 0 0 0-56.57-56.57z"/>
  <path fill="#2c2c2c" d="M854 588H170c-56.57 0-102.58 44.86-102.58 100v260.29a40 40 0 1 0 80 0V688c0-11 10.13-20 22.58-20h684c12.45 0 22.58 9 22.58 20v260.29a40 40 0 0 0 80 0V688c.05-55.17-45.97-100-102.58-100" data-spm-anchor-id="a313x.collections_detail.0.i17.259a3a81IvubSU"/>
</svg>
