<svg xmlns="http://www.w3.org/2000/svg" width="16" height="16" class="icon" viewBox="0 0 1024 1024">
  <path fill="#1f1f1f" d="M459.046 301.786a41.47 41.47 0 0 1-58.662.166 41.47 41.47 0 0 1 .18-58.65l83.148-83.161c105.6-105.6 276.3-106.112 381.274-1.127 104.972 104.96 104.473 275.674-1.127 381.274l-91.699 91.686a41.47 41.47 0 0 1-58.65.18 41.47 41.47 0 0 1 .167-58.663l91.699-91.686c73.1-73.114 73.46-191.283.78-263.962-72.678-72.678-190.847-72.32-263.96.781zM579.008 708.16a41.47 41.47 0 0 1 58.662-.166 41.47 41.47 0 0 1-.179 58.65l-97.203 97.228c-105.6 105.6-276.3 106.112-381.274 1.126-104.972-104.96-104.473-275.673 1.127-381.273l106.688-106.688a41.47 41.47 0 0 1 58.662-.167 41.47 41.47 0 0 1-.179 58.65L218.624 542.208c-73.1 73.114-73.46 191.283-.78 263.962 72.678 72.678 190.847 72.32 263.96-.781l97.204-97.216z"/>
  <path fill="#ff8830" d="M651.52 372.48c-20.083-20.07-52.992-19.43-73.498 1.088L399.168 552.422c-20.518 20.519-21.158 53.415-1.075 73.485 20.07 20.083 52.966 19.443 73.485-1.075l178.854-178.854c20.518-20.519 21.158-53.415 1.075-73.485z" class="selected" data-spm-anchor-id="a313x.search_index.0.i25.17343a810sBvPx"/>
</svg>
