<svg xmlns="http://www.w3.org/2000/svg" width="16" height="16" class="icon" viewBox="0 0 1024 1024">
  <path fill="#2c2c2c" d="M778.16 1022.57h-535a100 100 0 0 1-100-100v-595a40 40 0 0 1 40-40h655a40 40 0 0 1 40 40v595a100 100 0 0 1-100 100m-555-655v555a20 20 0 0 0 20 20h535a20 20 0 0 0 20-20v-555z" data-spm-anchor-id="a313x.collections_detail.0.i53.259a3a81IvubSU"/>
  <path fill="#ff8429" d="M906.47 168.57h-293a114.15 114.15 0 0 0 11.37-55C622.24 54.21 574.07 6.27 514.73 4A114.68 114.68 0 0 0 407 168.57H114c-20.7 0-39.4 16.85-40.65 37.52a40 40 0 0 0 39.93 42.48h794a40 40 0 0 0 39.93-42.48c-1.34-20.67-20.04-37.52-40.74-37.52m-396.26-85a34.7 34.7 0 1 1-34.7 34.7 34.74 34.74 0 0 1 34.69-34.7z"/>
  <path fill="#2c2c2c" d="M300.16 812.75V640.13c0-20.7 16.86-39.41 37.52-40.65a40 40 0 0 1 42.48 39.93v174.06a40 40 0 0 1-42.48 39.93c-20.68-1.25-37.52-19.95-37.52-40.65m170 0v-244c0-20.7 16.86-39.41 37.52-40.65a40 40 0 0 1 42.48 39.9v245.47a40 40 0 0 1-42.48 39.93c-20.68-1.25-37.52-19.95-37.52-40.65m170 0v-315.4c0-20.7 16.86-39.41 37.52-40.65a40 40 0 0 1 42.48 39.93v316.84a40 40 0 0 1-42.48 39.93c-20.68-1.25-37.52-19.95-37.52-40.65" data-spm-anchor-id="a313x.collections_detail.0.i54.259a3a81IvubSU"/>
</svg>
