<svg xmlns="http://www.w3.org/2000/svg" width="16" height="16" class="icon" viewBox="0 0 1024 1024">
  <path fill="#2c2c2c" d="M899.33 45.92H124.67a100.11 100.11 0 0 0-100 100v571.65a100.11 100.11 0 0 0 100 100H472v80.35H264.56a40 40 0 1 0 0 80h244c1.12.09 2.26.15 3.4.15s2.28-.06 3.4-.15h244a40 40 0 1 0 0-80H552v-80.35h347.33a100.11 100.11 0 0 0 100-100V145.92a100.11 100.11 0 0 0-100-100m20 671.66a20 20 0 0 1-20 20H124.67a20 20 0 0 1-20-20V145.92a20 20 0 0 1 20-20h774.66a20 20 0 0 1 20 20z" data-spm-anchor-id="a313x.collections_detail.0.i7.259a3a81pjGFQZ"/>
  <path fill="#ff8830" d="M865 300a15 15 0 0 0-15 15v353.29H174V195.2h548.5a15 15 0 0 0 0-30h-553a25.51 25.51 0 0 0-25.5 25.48v482.13a25.51 25.51 0 0 0 25.48 25.48h685.09A25.51 25.51 0 0 0 880 672.81V315a15 15 0 0 0-15-15" data-spm-anchor-id="a313x.collections_detail.0.i8.259a3a81pjGFQZ"/>
</svg>
