<svg xmlns="http://www.w3.org/2000/svg" width="16" height="16" class="icon" viewBox="0 0 1024 1024"><path fill="#ff8830" d="m352.74 634.4-41.9-83.3c-11.6-23-39.6-32.3-62.6-20.7-22.9 11.6-32.2 39.6-20.6 62.6l41.9 83.3c11.6 23 39.6 32.3 62.6 20.7 22.9-11.6 32.2-39.6 20.6-62.6M693.14 368c0-38.6 31.3-69.9 69.9-69.9s69.9 31.3 69.9 69.9-31.3 69.9-69.9 69.9c-38.5 0-69.9-31.3-69.9-69.9" class="selected" data-spm-anchor-id="a313x.search_index.0.i9.17343a810sBvPx"/><path fill="#2c2c2c" d="M283.54 940.4c-44 0-89.3-26.5-114.8-72.1L19.24 601.5c-16.4-29.1-22.6-62.2-17.5-93.1 5.7-34.3 25-63 53.1-78.7l580.4-325.4c38.6-21.6 84.4-26.5 125.6-13.4 184.3 58.4 228.6 104.2 245.9 133.5 33.1 56.1 12.4 158.7-13.6 267.8l-2.1 8.8c-10.1 42.5-38.2 79.4-77.2 101.2l-579.9 325.2c-15.7 8.8-32.9 13-50.4 13m430.4-763.6c-11.3 0-22.7 3-33 8.7l-580.4 325.4c-4.6 2.6-6.3 9.7-6.7 12.6-1.7 10 .8 21.8 6.7 32.3l149.5 266.9c11.5 20.5 30.7 27.7 38.3 23.4l580.1-325.2c16.3-9.1 28-24.3 32-41.4l2.1-8.9c10.1-42.2 40.7-170.5 24-198.8-2.3-3.8-27-39.1-193.8-92-6-2-12.4-3-18.8-3" data-spm-anchor-id="a313x.search_index.0.i8.17343a810sBvPx"/></svg>