<svg xmlns="http://www.w3.org/2000/svg" width="16" height="16" class="icon" data-spm-anchor-id="a313x.collections_detail.0.i27.259a3a81IvubSU" viewBox="0 0 1024 1024">
  <path fill="#2c2c2c" d="M912.16 114.65h-800a100 100 0 0 0-100 100v595a100 100 0 0 0 100 100h800a100 100 0 0 0 100-100v-595a100 100 0 0 0-100-100m0 715h-800a20 20 0 0 1-20-20V548.46c34.75-21.3 83.45-41.77 157.83-41.77 118.44 0 175 49.09 240.54 105.93 67.8 58.83 144.65 125.5 293 125.5 54.91 0 103.43-8.91 148.67-27.61v99.14a20 20 0 0 1-20.04 20m20-207.88c-44.48 25.08-91.21 36.42-148.67 36.42-118.44 0-175-49.09-240.54-105.93-67.8-58.83-144.65-125.5-293-125.5-46.32 0-87.68 6.3-126.44 19.26q-15.93 5.33-31.39 12.25V214.65a20 20 0 0 1 20-20h800a20 20 0 0 1 20 20z" data-spm-anchor-id="a313x.collections_detail.0.i26.259a3a81IvubSU"/>
  <path fill="#ff8830" d="M730.25 244.36a122.43 122.43 0 1 0 122.43 122.43 122.57 122.57 0 0 0-122.43-122.43m0 164.86a42.43 42.43 0 1 1 42.43-42.43 42.48 42.48 0 0 1-42.43 42.43" data-spm-anchor-id="a313x.collections_detail.0.i30.259a3a81IvubSU"/>
</svg>
