<svg xmlns="http://www.w3.org/2000/svg" width="16" height="16" class="icon" viewBox="0 0 1024 1024">
  <path fill="#ff7214" d="M512 394.99a109.295 109.295 0 1 1 .068-218.316A109.295 109.295 0 0 1 512 394.923zm0-146.909a37.683 37.683 0 1 0 .068 75.435A37.683 37.683 0 0 0 512 248.08m0 607.164a109.363 109.363 0 0 1 0-218.522c60.28 0 109.227 48.947 109.227 109.227S572.279 855.177 512 855.177zm0-146.978a37.683 37.683 0 1 0 .068 75.434 37.683 37.683 0 0 0-.068-75.434m230.127-83.15a109.363 109.363 0 0 1 0-218.52c60.28 0 109.227 48.946 109.227 109.226S802.338 625.05 742.127 625.05zm0-146.977a37.683 37.683 0 1 0 .068 75.434 37.683 37.683 0 0 0-.068-75.434M281.873 625.118a109.363 109.363 0 0 1 0-218.522c60.211 0 109.227 48.947 109.227 109.227S342.153 625.05 281.873 625.05zm0-146.978a37.683 37.683 0 1 0 .068 75.503 37.683 37.683 0 0 0-.068-75.435z"/>
  <path fill="#2c2c2c" d="M988.16 952.32H772.779A512.2 512.2 0 0 0 1024 512C1024 229.717 794.35 0 512 0 229.717 0 0 229.717 0 512s229.717 512 512 512h476.16a35.84 35.84 0 0 0 0-71.68M71.68 512A440.866 440.866 0 0 1 512 71.68 440.866 440.866 0 0 1 952.32 512 440.866 440.866 0 0 1 512 952.32 440.866 440.866 0 0 1 71.68 512"/>
</svg>
