<svg xmlns="http://www.w3.org/2000/svg" width="16.047" height="16" class="icon" viewBox="0 0 1027 1024">
  <path fill="#2c2c2c" d="M827.362 13.667a46.686 46.686 0 0 1 59.477-5.436l6.331 5.436 116.46 116.267a46.494 46.494 0 0 1 5.371 59.349l-5.372 6.395-349.312 348.929a46.56 46.56 0 0 1-25.582 13.046l-7.418.64H510.986a46.56 46.56 0 0 1-45.982-39.012l-.512-7.546V395.276a46.7 46.7 0 0 1 8.762-27.244l4.796-5.564 349.44-348.8zm32.936 98.616L557.544 414.59v50.523h50.459l302.818-302.307z"/>
  <path fill="#ff8830" d="M324.754 465.113a46.494 46.494 0 0 1 7.483 92.412l-7.483.64h-163.08a69.837 69.837 0 0 0-8.698 139.034l8.762.512h698.56a162.889 162.889 0 0 1 12.151 325.074l-12.15.512H371.311a46.494 46.494 0 0 1-7.61-92.413l7.61-.64h488.986a69.837 69.837 0 0 0 8.762-138.97l-8.762-.575h-698.56a162.889 162.889 0 0 1-12.151-325.074l12.15-.512z" class="selected" data-spm-anchor-id="a313x.search_index.0.i2.17343a810sBvPx"/>
</svg>
